<?xml version="1.0"?><svg width="137.152" height="137.112" xmlns="http://www.w3.org/2000/svg">

 <g>
  <title>Layer 1</title>
  <path fill="#5471AF" id="path5" d="m0,68.533997c0,34.940002 27.408001,65.096008 62.230999,68.296997c34.835003,3.203003 67.431995,-21.292992 73.804005,-55.742996c6.371002,-34.440998 -15.125,-69.136997 -48.881004,-78.602998c-33.765999,-9.468 -70.253,8.916 -82.704999,41.693002c-2.949,7.763 -4.449,16.051998 -4.449,24.355995"/>
  <radialGradient r="63.7393" id="XMLID_2_" gradientUnits="userSpaceOnUse" cy="68.5327" cx="68.5908">
   <stop stop-color="#D4E4F7" offset="0" id="stop8"/>
   <stop stop-color="#7FB5F7" offset="1" id="stop10"/>
  </radialGradient>
  <path fill="url(#XMLID_2_)" id="path12" d="m4.852,68.533997c0,34.735001 29.002999,63.738007 63.739003,63.738007c34.736,0 63.738998,-29.003006 63.738998,-63.738007c0,-34.736996 -29.002998,-63.739996 -63.738998,-63.739996c-34.736004,-0.001 -63.739003,29.003001 -63.739003,63.739996"/>
  <path fill="#68A0F2" id="path14" d="m10.998,43.757999c-5.15,30.017002 12.779,60.171001 41.608998,69.993999c30.577999,10.418999 64.985004,-4.979996 77.773006,-34.598c-6.145004,35.844002 -43.000008,59.405998 -78.116005,49.93c-36.257,-9.784996 -56.209,-50.753998 -41.266,-85.326"/>
  <path fill="#B3E7FC" id="path16" d="m28.780001,40.237999c8.816,1.823002 18.964998,-10.664 26.607,-13.841c14.278999,-5.935999 32.115997,-3.18 45.053001,4.903c13.683998,8.549 23.416,24.971001 24.912994,41.091999c0.005005,0.046005 0.005005,0.055 0.000999,0.024002c-1.009995,-9.762001 -0.327995,-18.938 -4.045998,-28.375c-6.158997,-15.641001 -19.478996,-27.888 -35.539001,-32.809c-16.605995,-5.086 -34.764996,-1.85 -49.069996,7.844999c-4.417,2.996 -21.420001,18.366001 -7.919001,21.160999"/>
 </g>
</svg>