<?xml version="1.0" encoding="utf-8"?>
<!-- Generator: Adobe Illustrator 15.1.0, SVG Export Plug-In . SVG Version: 6.00 Build 0)  -->
<!DOCTYPE svg PUBLIC "-//W3C//DTD SVG 1.1//EN" "http://www.w3.org/Graphics/SVG/1.1/DTD/svg11.dtd">
<svg version="1.1" id="Layer_1" xmlns="http://www.w3.org/2000/svg" xmlns:xlink="http://www.w3.org/1999/xlink" x="0px" y="0px"
	 width="188.397px" height="197.419px" viewBox="163.624 95.958 188.397 197.419"
	 enable-background="new 163.624 95.958 188.397 197.419" xml:space="preserve">
<title>cardboard closed box</title>
<g>
	<title>Layer 1</title>
	<path id="path2894" fill="#D3BC5F" d="M273.29,96.993l76.291,32.458v112.913l-76.291-56.301V96.993z"/>
	
		<linearGradient id="path2896_1_" gradientUnits="userSpaceOnUse" x1="1792.4707" y1="-53.7217" x2="1792.8691" y2="-53.7217" gradientTransform="matrix(464.7277 0 0 -152.247 -832846.3125 -8051.7578)">
		<stop  offset="0" style="stop-color:#DCCB94"/>
		<stop  offset="1" style="stop-color:#C4A95A"/>
	</linearGradient>
	<path id="path2896" fill="url(#path2896_1_)" d="M164.512,113.829l55.887,43.794l129.182-28.171L273.29,96.993L164.512,113.829z"/>
	
		<linearGradient id="path2900_1_" gradientUnits="userSpaceOnUse" x1="1792.75" y1="-53.4004" x2="1793.1475" y2="-53.4004" gradientTransform="matrix(140.3379 0 0 -445.8846 -251427.0312 -23608.6875)">
		<stop  offset="0" style="stop-color:#BB9652"/>
		<stop  offset="1" style="stop-color:#D4BF8A"/>
	</linearGradient>
	<path id="path2900" fill="url(#path2900_1_)" d="M163.624,112.941l55.887,43.794v133.771l-55.887-76.003V112.941z"/>
	<path id="path2575" fill="none" stroke="#784421" stroke-width="2.5111" d="M223.085,105.357l68.254,36.477"/>
	<path id="path3353" fill="none" stroke="#C7A768" stroke-width="2.5111" d="M164.569,113.833l55.873,43.63l129.636-27.936"/>
	
		<path id="path2577" opacity="0.4217" fill="#34DBDB" fill-opacity="0.3649" stroke="#FFFFFF" stroke-width="0.5022" enable-background="new    " d="
		M303.897,139.455l0.196,10.79l-3.845-6.513l-3.061,7.533l-2.903-6.278l-3.688,6.513l-1.726-3.767l-3.924,6.592l-1.569-5.022
		l-4.63,7.533l-0.353-11.849L303.897,139.455z"/>
	<path id="path3355" fill="none" stroke="#C7A768" stroke-width="2.5111" d="M220.128,157.15v134.344"/>
	<path id="path3351" fill="none" stroke="#6C5434" stroke-width="2.5111" d="M165.255,114.833l0.314,101.386l54.931,75.648
		l130.264-48.653L350.45,129.9l-76.589-32.645L165.255,114.833z"/>
	
		<linearGradient id="path2898_1_" gradientUnits="userSpaceOnUse" x1="1792.8555" y1="-53.0835" x2="1792.458" y2="-53.0835" gradientTransform="matrix(324.3898 0 0 -406.6538 -581234.625 -21376.3438)">
		<stop  offset="0" style="stop-color:#A28650"/>
		<stop  offset="1" style="stop-color:#DAC491"/>
	</linearGradient>
	<path id="path2898" fill="url(#path2898_1_)" d="M220.398,157.623v133.771l129.182-49.029V129.452L220.398,157.623z"/>
</g>
</svg>
